<?xml version="1.0" standalone="no"?>
<!DOCTYPE svg PUBLIC "-//W3C//DTD SVG 20010904//EN"
 "http://www.w3.org/TR/2001/REC-SVG-20010904/DTD/svg10.dtd">
<svg version="1.0" xmlns="http://www.w3.org/2000/svg"
 width="247.000000pt" height="247.000000pt" viewBox="0 0 247.000000 247.000000"
 preserveAspectRatio="xMidYMid meet">
<metadata>
Created by potrace 1.11, written by Peter Selinger 2001-2013
</metadata>
<g transform="translate(0.000000,247.000000) scale(0.100000,-0.100000)"
fill="#000000" stroke="none">
<path d="M1217 2274 c-3 -3 -3 -12 0 -20 3 -7 -2 -21 -11 -30 -9 -8 -14 -19
-12 -23 3 -4 8 -41 11 -82 10 -120 22 -206 25 -179 1 14 3 36 5 50 1 14 6 59
10 100 3 41 8 88 10 103 2 18 -2 30 -11 34 -9 3 -12 14 -10 29 4 23 -4 31 -17
18z"/>
<path d="M1056 2199 c-34 -40 -35 -74 -3 -63 12 4 34 9 48 10 40 3 66 21 71
48 7 33 3 36 -48 36 -35 0 -47 -5 -68 -31z"/>
<path d="M1276 2222 c-7 -12 8 -57 23 -67 6 -3 30 -8 53 -11 23 -3 48 -10 56
-16 21 -18 5 53 -17 76 -21 21 -105 34 -115 18z"/>
<path d="M1146 2144 c-11 -7 -36 -17 -55 -20 -47 -9 -61 -21 -61 -54 0 -31 9
-43 24 -31 14 10 99 31 105 26 5 -6 -46 -25 -69 -25 -19 0 -30 -19 -30 -52 0
-14 5 -18 16 -14 9 3 27 9 41 12 23 6 24 5 12 -14 -19 -30 0 -47 29 -26 20 14
32 64 15 64 -9 0 -8 103 1 125 8 21 -6 25 -28 9z"/>
<path d="M1275 2132 c6 -45 15 -60 46 -71 16 -5 29 -8 29 -5 0 2 13 -2 30 -11
29 -15 30 -14 36 9 9 36 -12 66 -44 66 -15 0 -44 9 -64 20 l-37 19 4 -27z"/>
<path d="M1273 2064 c3 -3 -1 -23 -8 -44 -13 -36 -12 -39 10 -60 22 -21 45
-20 45 1 0 6 -12 22 -27 36 -16 14 -20 20 -11 13 9 -6 33 -20 53 -30 29 -15
37 -16 41 -5 11 29 -3 51 -46 72 -44 21 -69 29 -57 17z"/>
<path d="M719 1998 c-50 -13 -85 -53 -103 -118 -15 -53 -16 -54 -14 -15 1 22
9 55 19 73 21 36 12 41 -22 13 -21 -17 -24 -28 -24 -88 1 -57 5 -74 27 -106
15 -21 30 -39 35 -40 4 -1 8 -17 7 -34 l0 -33 30 18 c17 10 32 27 34 39 4 25
-23 54 -43 47 -12 -5 -11 -10 5 -31 11 -14 20 -31 20 -37 -1 -6 -8 1 -16 17
-8 15 -19 27 -25 27 -5 0 -18 18 -28 41 l-18 40 29 63 c36 75 78 107 142 110
27 0 41 5 36 10 -13 13 -49 14 -91 4z"/>
<path d="M1645 2000 c-15 -7 -9 -9 26 -9 63 -1 107 -33 143 -101 l28 -55 -6
44 c-4 24 -16 57 -28 74 -34 48 -110 70 -163 47z"/>
<path d="M1820 1965 c0 -3 7 -17 16 -30 19 -29 17 -103 -4 -157 -23 -60 -9
-65 21 -6 30 59 35 126 14 168 -11 22 -47 41 -47 25z"/>
<path d="M1886 1962 c-9 -15 12 -35 50 -48 21 -7 40 -12 41 -10 5 5 -66 66
-77 66 -5 0 -11 -4 -14 -8z"/>
<path d="M501 1930 c-38 -37 -40 -48 -3 -25 l27 18 -27 -29 -27 -29 40 0 c28
0 38 3 34 12 -17 44 -18 46 -7 39 9 -6 32 21 32 38 0 17 -41 2 -69 -24z"/>
<path d="M803 1953 c-7 -2 -13 -12 -13 -20 0 -14 -2 -14 -18 0 -22 20 -73 22
-90 5 -19 -19 -14 -25 16 -21 31 4 73 -15 80 -36 4 -11 -1 -10 -19 2 -30 21
-83 22 -103 1 -23 -23 -19 -35 9 -30 14 3 25 1 25 -4 0 -5 -12 -10 -27 -12
-16 -2 -29 -10 -31 -19 -2 -12 6 -15 43 -14 26 0 54 -5 63 -12 22 -16 32 -16
32 0 0 17 -29 43 -55 50 -16 4 -15 5 6 6 15 0 32 -6 39 -14 20 -24 28 -18 27
20 -1 21 7 46 21 64 30 40 28 48 -5 34z"/>
<path d="M1177 1945 c-18 -13 -18 -14 2 -34 12 -12 21 -26 21 -32 0 -5 4 -8 9
-5 4 3 7 16 6 28 -1 13 -3 31 -4 41 -1 20 -10 21 -34 2z"/>
<path d="M1246 1948 c-21 -67 -9 -90 23 -47 18 24 20 33 11 45 -15 17 -29 18
-34 2z"/>
<path d="M1561 1936 c-38 -40 -37 -76 4 -114 31 -30 44 -52 30 -52 -3 0 -22
16 -44 35 -65 59 -59 -8 8 -84 28 -31 31 -33 38 -15 4 10 15 28 25 38 25 27
23 43 -13 114 -19 39 -28 69 -24 82 8 26 3 25 -24 -4z"/>
<path d="M1633 1942 c10 -10 17 -24 17 -32 0 -9 9 -11 32 -6 l32 6 -22 -20
c-13 -12 -22 -33 -22 -50 l0 -30 20 20 c30 30 66 41 96 30 37 -14 37 -14 11
33 -29 51 -63 73 -101 63 -22 -5 -27 -11 -23 -26 7 -28 -2 -25 -13 5 -5 14
-17 25 -26 25 -16 0 -16 -1 -1 -18z"/>
<path d="M867 1931 c3 -11 -10 -49 -28 -86 -27 -56 -30 -69 -20 -91 6 -14 16
-22 21 -19 6 4 9 3 8 -2 -5 -14 42 -113 54 -113 6 0 8 -3 5 -7 -4 -3 -1 -16 6
-27 8 -12 17 -34 21 -50 l7 -30 39 45 c26 28 39 54 40 73 0 27 0 28 -17 9 -36
-38 -73 -66 -73 -55 0 7 16 29 35 49 34 36 45 75 25 88 -5 3 -10 0 -11 -7 0
-15 -57 -63 -65 -55 -3 3 6 13 21 23 30 20 46 53 39 81 -5 16 -12 12 -55 -30
-27 -26 -49 -43 -49 -37 0 7 16 27 35 45 65 64 59 125 -6 64 -51 -47 -63 -43
-23 7 16 20 33 42 38 49 12 16 -11 73 -34 85 -15 8 -17 6 -13 -9z"/>
<path d="M1068 1925 c-17 -37 2 -69 64 -104 29 -17 56 -31 61 -31 15 0 6 54
-14 86 -17 29 -74 74 -93 74 -3 0 -12 -11 -18 -25z"/>
<path d="M1317 1926 c-42 -34 -67 -77 -67 -113 l0 -31 55 30 c69 37 92 69 79
106 -12 35 -32 37 -67 8z"/>
<path d="M1907 1890 c-4 -17 -1 -20 22 -18 14 1 32 -1 39 -6 22 -13 13 12 -10
28 -30 21 -45 20 -51 -4z"/>
<path d="M496 1838 c-23 -32 -20 -36 18 -24 29 9 33 13 25 28 -13 24 -25 23
-43 -4z"/>
<path d="M1907 1839 c-3 -13 -1 -19 6 -16 7 2 25 -2 40 -10 l28 -14 -16 30
c-18 36 -50 41 -58 10z"/>
<path d="M1216 1842 c-7 -11 2 -273 9 -281 3 -2 5 43 6 100 0 57 2 119 3 136
3 36 -8 62 -18 45z"/>
<path d="M1713 1835 c-13 -9 -23 -27 -23 -40 0 -24 1 -24 20 -7 27 23 60 31
88 21 16 -6 22 -5 22 6 0 18 -7 22 -50 30 -24 4 -42 1 -57 -10z"/>
<path d="M1901 1794 l-22 -28 23 -17 c24 -19 39 -16 20 3 -7 7 -12 17 -12 23
1 5 10 -1 20 -14 l20 -23 0 24 c0 13 -6 32 -13 42 -13 17 -15 17 -36 -10z"/>
<path d="M510 1791 c-5 -11 -10 -28 -10 -37 0 -15 3 -15 21 5 12 12 23 20 26
17 3 -3 -2 -12 -11 -21 -14 -15 -14 -18 2 -34 28 -29 82 -63 82 -52 0 21 -51
70 -68 65 -14 -5 -14 -3 2 10 18 14 18 17 2 41 -20 30 -32 32 -46 6z"/>
<path d="M1092 1793 c-15 -29 0 -52 57 -84 l54 -31 -6 36 c-4 23 -18 47 -39
66 -37 34 -53 37 -66 13z"/>
<path d="M1285 1775 c-24 -25 -35 -45 -35 -66 l0 -29 50 25 c50 25 69 56 56
90 -9 24 -33 17 -71 -20z"/>
<path d="M648 1791 c-27 -10 -7 -26 36 -28 22 -1 43 -8 47 -15 13 -21 21 -1 9
21 -6 12 -18 21 -28 22 -9 0 -24 2 -32 3 -8 2 -23 1 -32 -3z"/>
<path d="M1732 1784 c-12 -8 -22 -24 -22 -35 0 -20 0 -20 27 1 19 15 35 19 55
15 36 -8 38 12 2 25 -33 13 -36 13 -62 -6z"/>
<path d="M1478 1764 c-5 -23 11 -65 31 -81 8 -7 10 -13 4 -13 -7 0 -20 11 -31
25 -11 13 -22 21 -26 18 -14 -14 -4 -42 30 -82 45 -52 39 -64 -10 -18 -61 58
-62 2 -1 -67 l34 -38 7 28 c4 16 14 39 22 51 8 13 12 29 9 37 -4 10 -1 13 8
10 9 -4 17 4 21 21 6 23 0 34 -44 77 -42 43 -51 48 -54 32z"/>
<path d="M1757 1749 c-25 -15 -21 -32 14 -52 20 -11 29 -13 26 -5 -2 7 0 21 4
30 12 22 -19 41 -44 27z"/>
<path d="M1854 1713 c-50 -54 -48 -66 5 -31 28 18 49 37 48 42 -7 21 -28 16
-53 -11z"/>
<path d="M727 1693 c-15 -17 -12 -18 39 -19 47 -1 52 0 37 11 -34 24 -59 26
-76 8z"/>
<path d="M1653 1694 c-18 -8 -33 -15 -33 -17 0 -2 28 -1 63 1 34 2 59 1 56 -2
-4 -4 -27 -9 -52 -11 -45 -3 -97 -29 -97 -47 0 -5 4 -7 9 -4 4 3 34 7 65 10
80 6 101 29 67 70 -16 19 -35 19 -78 0z"/>
<path d="M1110 1685 c-21 -25 -3 -63 40 -85 49 -25 50 -25 50 3 0 14 -15 40
-35 60 -41 43 -39 42 -55 22z"/>
<path d="M1286 1665 c-22 -22 -36 -45 -36 -60 0 -32 8 -31 58 5 43 31 53 59
28 79 -11 10 -21 5 -50 -24z"/>
<path d="M702 1643 c2 -9 14 -17 28 -19 14 -1 48 -5 77 -8 40 -4 51 -2 47 8
-8 21 -51 36 -105 36 -42 0 -50 -3 -47 -17z"/>
<path d="M746 1598 c-24 -13 -3 -37 30 -33 13 1 42 -1 64 -5 44 -8 52 2 18 24
-30 18 -90 26 -112 14z"/>
<path d="M1620 1603 c-20 -7 -50 -34 -50 -44 0 -5 12 -4 27 2 15 5 39 9 53 8
33 -2 60 10 60 27 0 14 -58 19 -90 7z"/>
<path d="M1104 1575 c-8 -31 7 -50 58 -76 l38 -19 0 26 c0 18 -12 38 -36 60
-42 41 -52 42 -60 9z"/>
<path d="M1284 1566 c-22 -22 -34 -44 -34 -61 0 -18 4 -25 13 -22 70 30 94 58
82 96 -9 29 -22 26 -61 -13z"/>
<path d="M1008 1550 c-37 -35 -46 -62 -29 -89 7 -11 11 -10 20 7 6 12 23 33
36 48 26 28 30 42 17 59 -4 6 -22 -4 -44 -25z"/>
<path d="M1410 1561 c0 -20 10 -45 28 -67 29 -37 47 -43 56 -18 8 20 -4 41
-48 83 l-36 35 0 -33z"/>
<path d="M1589 1542 c-49 -25 -46 -37 9 -36 45 1 100 20 89 30 -18 18 -68 21
-98 6z"/>
<path d="M780 1541 c-8 -6 -18 -7 -23 -4 -5 3 -7 0 -5 -8 3 -8 11 -15 19 -15
8 -1 16 -3 19 -4 3 -1 28 -4 57 -5 58 -3 64 16 11 34 -38 13 -58 14 -78 2z"/>
<path d="M881 1456 c-27 -43 -27 -45 7 -92 31 -43 56 -104 43 -104 -5 0 -12
12 -15 26 -11 44 -37 74 -62 74 -30 0 -46 -36 -35 -76 7 -26 8 -27 18 -10 13
23 28 15 53 -27 16 -25 20 -28 26 -14 4 13 10 14 24 7 23 -12 30 -3 34 42 2
18 7 57 11 86 7 50 6 53 -28 87 -19 19 -40 35 -45 35 -6 0 -20 -15 -31 -34z"/>
<path d="M1503 1463 c-17 -16 -33 -35 -36 -44 -7 -22 14 -179 24 -179 5 0 12
0 17 0 7 0 8 5 11 39 0 10 17 42 36 70 19 28 35 56 35 63 0 18 -38 78 -48 78
-5 0 -23 -12 -39 -27z"/>
<path d="M1147 1424 c66 -59 100 -59 163 0 l47 44 -129 -1 -129 0 48 -43z"/>
<path d="M572 1380 c-51 -33 -95 -67 -99 -76 -7 -18 13 -86 38 -128 l17 -28
17 33 c10 19 44 85 77 147 33 61 56 112 51 112 -5 0 -50 -27 -101 -60z"/>
<path d="M1061 1384 c5 -25 9 -77 10 -115 1 -38 3 -69 5 -69 2 0 11 14 19 30
9 17 28 39 43 48 21 13 27 25 28 54 1 35 -2 39 -56 67 l-57 31 8 -46z"/>
<path d="M1343 1397 c-50 -30 -53 -34 -53 -73 0 -35 4 -43 23 -48 12 -3 32
-23 44 -43 l22 -38 2 55 c1 30 1 64 1 75 -1 11 4 6 10 -12 10 -30 12 -31 24
-15 15 20 24 13 28 -22 1 -15 7 -26 12 -26 9 1 8 66 -1 108 -6 24 -33 29 -54
10 -11 -11 -13 -6 -8 25 3 20 5 37 4 36 -1 0 -26 -15 -54 -32z"/>
<path d="M1800 1414 c0 -11 124 -244 129 -244 12 0 50 69 56 102 8 41 0 49
-103 107 -77 43 -82 45 -82 35z"/>
<path d="M995 1358 c-2 -13 -7 -44 -9 -70 -4 -38 -1 -48 10 -48 10 0 14 8 13
23 -4 24 7 47 22 47 5 0 9 -8 9 -17 0 -15 2 -16 10 -3 13 21 12 64 -2 78 -20
20 -47 14 -53 -10z"/>
<path d="M1196 1354 c-9 -8 -16 -22 -16 -29 0 -7 7 -21 16 -29 30 -30 74 -13
74 29 0 42 -44 59 -74 29z"/>
<path d="M1695 1349 c4 -13 9 -40 12 -61 4 -27 10 -37 27 -40 18 -4 27 5 48
42 l26 47 -41 12 c-23 7 -51 15 -61 18 -16 4 -18 2 -11 -18z"/>
<path d="M692 1347 c-24 -7 -43 -15 -43 -20 0 -20 36 -87 47 -87 29 0 44 14
44 40 0 16 4 40 10 54 11 30 8 30 -58 13z"/>
<path d="M1561 1334 c-27 -35 -38 -93 -20 -105 10 -6 15 -3 17 10 2 10 12 27
23 37 20 18 21 18 34 1 12 -17 14 -16 20 12 14 64 -35 94 -74 45z"/>
<path d="M781 1295 c-1 -11 -8 -30 -16 -43 -17 -24 -8 -55 24 -79 28 -21 34
-14 28 31 -8 54 -35 122 -36 91z"/>
<path d="M1644 1275 c-7 -19 -14 -53 -14 -76 l0 -42 23 21 c13 12 27 19 31 15
4 -4 4 0 1 9 -4 9 -1 19 5 23 7 4 4 17 -10 39 -11 18 -17 36 -13 39 3 4 3 7
-1 7 -4 0 -14 -16 -22 -35z"/>
<path d="M389 1218 c-46 -72 -53 -89 -51 -128 5 -88 85 -208 170 -253 159 -85
200 -103 337 -143 18 -6 139 -31 178 -38 20 -4 37 -3 36 1 -4 23 2 35 16 29
19 -7 19 8 1 23 -18 15 -18 71 0 78 11 4 10 10 -2 28 -9 13 -13 28 -10 34 3 5
-13 12 -36 16 -204 31 -395 120 -494 229 -55 60 -100 153 -91 188 3 10 4 18 2
18 -1 0 -26 -37 -56 -82z"/>
<path d="M2002 1243 c-26 -95 -107 -189 -222 -257 -95 -56 -273 -113 -393
-125 -4 -1 -7 -7 -5 -13 1 -7 -3 -23 -10 -35 -9 -17 -9 -22 3 -27 20 -7 19
-60 0 -76 -8 -7 -15 -16 -15 -21 0 -5 7 -6 15 -3 10 4 15 0 15 -15 0 -19 4
-21 41 -16 139 17 377 99 472 162 23 16 55 35 71 43 96 49 176 240 124 297 -9
10 -32 43 -50 74 l-34 57 -12 -45z"/>
<path d="M1191 1260 c-3 -3 -19 -22 -34 -42 l-28 -38 100 0 101 0 -32 43 c-27
35 -39 42 -66 42 -19 0 -37 -2 -41 -5z"/>
<path d="M933 1218 c-18 -5 -35 -13 -39 -19 -10 -17 17 -29 39 -18 10 6 31 11
48 11 27 1 63 26 43 30 -29 5 -63 4 -91 -4z"/>
<path d="M1432 1212 c7 -24 -7 -48 -34 -63 -16 -8 -19 -8 -13 1 5 9 1 10 -14
5 -11 -3 -21 -3 -21 2 0 11 -231 11 -247 0 -7 -5 -13 -5 -13 -1 0 3 -7 1 -15
-6 -12 -10 -19 -8 -36 12 -20 23 -26 24 -68 16 -31 -5 -54 -18 -73 -38 -19
-21 -34 -29 -50 -26 -13 3 -27 5 -31 5 -4 1 -19 13 -32 27 -19 21 -27 24 -43
15 -20 -11 -20 -11 0 -78 20 -68 35 -96 47 -89 18 11 304 39 416 40 131 1 200
-4 377 -27 108 -15 99 -19 113 53 4 19 14 47 21 62 13 25 12 28 -6 38 -18 10
-24 7 -40 -13 -11 -14 -31 -28 -44 -31 -32 -8 -76 9 -76 29 0 17 -38 35 -76
35 -13 0 -24 4 -24 9 0 5 16 5 38 0 53 -12 72 -11 72 5 0 16 -14 21 -84 31
-45 6 -48 5 -44 -13z"/>
<path d="M1706 1214 c-4 -10 -2 -22 3 -27 14 -14 43 0 39 20 -4 24 -34 28 -42
7z"/>
<path d="M697 1206 c-9 -22 19 -42 37 -26 19 15 10 40 -14 40 -10 0 -20 -6
-23 -14z"/>
<path d="M277 1099 c-24 -14 -16 -72 23 -154 74 -156 257 -264 589 -349 139
-36 169 -42 256 -53 l50 -6 -55 38 c-30 20 -62 38 -70 40 -8 2 -49 11 -91 19
-395 83 -652 257 -663 449 -1 29 -10 33 -39 16z"/>
<path d="M2124 1071 c-3 -58 -49 -135 -122 -202 -112 -102 -352 -203 -577
-243 -16 -3 -43 -8 -58 -12 -27 -6 -28 -5 -17 16 14 25 7 50 -14 50 -11 0 -8
7 9 25 14 13 25 33 25 45 0 16 -7 20 -32 21 -30 0 -31 1 -10 9 23 10 29 19 34
55 7 45 -94 17 -106 -30 -8 -33 -1 -44 25 -38 19 5 19 4 -5 -20 -29 -29 -36
-77 -11 -77 12 0 11 -4 -5 -20 -11 -11 -20 -31 -20 -45 0 -20 5 -25 26 -25 14
0 34 5 45 10 37 20 19 1 -23 -24 -48 -29 -37 -32 53 -16 30 5 69 12 88 15 19
3 37 8 41 10 4 2 22 7 41 10 60 10 262 76 335 109 195 90 285 184 326 339 12
45 11 50 -7 63 -30 22 -40 17 -41 -25z"/>
<path d="M1010 1013 c-135 -20 -216 -36 -223 -42 -17 -17 11 -20 64 -6 187 48
461 54 694 15 33 -5 62 -10 65 -10 3 0 -2 -5 -10 -10 -9 -6 -10 -10 -3 -10 6
0 14 4 17 9 3 4 17 6 31 3 31 -6 34 15 3 23 -101 25 -533 44 -638 28z"/>
<path d="M1120 994 c-8 -1 -64 -8 -123 -15 -59 -7 -110 -17 -114 -22 -3 -6 -2
-8 3 -5 41 25 552 27 673 3 13 -2 21 -1 17 2 -4 4 -14 8 -24 9 -9 2 -34 5 -54
8 -93 15 -333 27 -378 20z"/>
<path d="M1099 953 c-23 -6 -12 -49 19 -73 20 -16 92 -29 92 -16 0 1 -5 18
-11 36 -8 22 -22 37 -45 46 -18 8 -35 13 -36 13 -2 -1 -10 -3 -19 -6z"/>
<path d="M1293 949 c-25 -9 -43 -38 -43 -70 0 -19 4 -21 38 -16 66 11 116 97
54 95 -15 -1 -37 -5 -49 -9z"/>
<path d="M1217 924 c-3 -16 -4 -47 -2 -69 1 -22 3 -80 4 -129 0 -49 3 -87 6
-84 11 11 18 275 7 293 -8 16 -10 15 -15 -11z"/>
<path d="M1094 854 c-16 -7 -6 -44 20 -72 15 -18 17 -23 6 -22 -31 5 -37 0
-32 -25 2 -14 16 -34 30 -45 24 -19 24 -20 3 -20 -16 0 -21 -6 -21 -24 0 -31
43 -66 81 -66 23 0 29 4 29 22 0 12 -10 33 -22 46 -13 14 -18 22 -12 19 7 -4
17 0 24 8 10 12 8 22 -9 50 -20 34 -20 35 -1 35 15 0 18 5 14 28 -3 15 -13 34
-22 44 -18 17 -69 30 -88 22z"/>
<path d="M385 580 c4 -19 31 -77 61 -128 l53 -92 -49 -25 c-28 -14 -50 -27
-50 -29 0 -3 60 -2 133 1 166 8 860 8 1237 1 l285 -6 -37 32 -36 32 29 69 c16
39 33 79 38 90 5 11 14 35 20 52 l10 33 -28 -20 c-27 -21 -163 -53 -271 -65
-30 -3 -71 -8 -91 -11 -39 -5 -86 -9 -219 -20 -47 -3 -103 -8 -125 -10 -50 -5
-175 -5 -240 0 -122 10 -212 17 -240 20 -131 14 -163 18 -185 21 -14 2 -45 6
-70 10 -121 16 -197 39 -218 64 -12 14 -13 11 -7 -19z"/>
</g>
</svg>
